<?xml version="1.0" encoding="utf-8"?>
<!-- Generator: Adobe Illustrator 16.0.0, SVG Export Plug-In . SVG Version: 6.00 Build 0)  -->
<!DOCTYPE svg PUBLIC "-//W3C//DTD SVG 1.1//EN" "http://www.w3.org/Graphics/SVG/1.1/DTD/svg11.dtd">
<svg version="1.1" id="Layer_1" xmlns="http://www.w3.org/2000/svg" xmlns:xlink="http://www.w3.org/1999/xlink" x="0px" y="0px"
	 width="433.023px" height="60.947px" viewBox="0 0 433.023 60.947" enable-background="new 0 0 433.023 60.947"
	 xml:space="preserve">
<defs>
	<filter id="Adobe_OpacityMaskFilter" filterUnits="userSpaceOnUse" x="48.699" y="0" width="54.193" height="60.944">
		<feFlood  style="flood-color:white;flood-opacity:1" result="back"/>
		<feBlend  in="SourceGraphic" in2="back" mode="normal"/>
	</filter>
</defs>
<mask maskUnits="userSpaceOnUse" x="48.699" y="0" width="54.193" height="60.944" id="SVGID_1_">
	<g filter="url(#Adobe_OpacityMaskFilter)">
		<path fill="#010101" d="M117.167,34.833c0,7.584-17.991,13.732-40.183,13.732h-17.3c-22.192,0-40.183-6.148-40.183-13.732v-9.536
			c0-7.584,17.991-13.732,40.183-13.732h17.3c22.192,0,40.183,6.148,40.183,13.732V34.833z"/>
		<g>
		</g>
	</g>
</mask>
<ellipse transform="matrix(0.5783 -0.8158 0.8158 0.5783 7.1019 74.6848)" mask="url(#SVGID_1_)" fill="none" stroke="#FEDE3D" stroke-width="5" cx="75.795" cy="30.473" rx="31" ry="20.641"/>
<text transform="matrix(1 0 0 1 0 42.7354)" fill="#37375E" font-family="'OpenSans-Bold'" font-size="35">DFW    Innovation Center</text>
<g>
	<polygon fill="#FEDE3D" points="97.333,18.005 100.378,27.035 109.828,27.035 102.268,32.706 104.998,41.735 97.333,36.379 
		89.668,41.735 92.398,32.706 84.838,27.035 94.288,27.035 	"/>
</g>
</svg>
